<svg xmlns="http://www.w3.org/2000/svg" width="444.819" height="444.819" viewBox="0 0 444.819 444.819"><path d="M352.025 196.712l-186.141-185.864c-6.855-7.233-15.415-10.848-25.697-10.848s-18.842 3.619-25.697 10.848l-21.698 21.416c-7.044 7.043-10.566 15.604-10.566 25.692 0 9.897 3.521 18.56 10.566 25.981l138.753 138.473-138.759 138.758c-7.042 7.043-10.564 15.604-10.564 25.693 0 9.896 3.521 18.562 10.564 25.98l21.7 21.413c7.043 7.043 15.612 10.564 25.697 10.564 10.089 0 18.656-3.521 25.697-10.564l186.145-185.864c7.046-7.423 10.571-16.084 10.571-25.981.001-10.088-3.525-18.654-10.571-25.697z"/></svg>