<svg xmlns="http://www.w3.org/2000/svg" viewBox="-197 324 216 146" enable-background="new -197 324 216 146"><path d="M-89 334.4c-34.6 0-62.6 28-62.6 62.6s28 62.6 62.6 62.6 62.6-28 62.6-62.6-28-62.6-62.6-62.6zm-10.4 15.6c0-1.4 1.1-2.5 2.5-2.5h15.8c1.4 0 2.5 1.1 2.5 2.5v13.2c0 1.4-1.1 2.5-2.5 2.5h-15.8c-1.4 0-2.5-1.1-2.5-2.5v-13.2zm31.3 86.2c0 1.4-1.1 2.5-2.5 2.5h-36.7c-1.4 0-2.5-1.1-2.5-2.5v-13.2c0-1.4 1.1-2.5 2.5-2.5h7.9v-26.1h-7.9c-1.4 0-2.5-1.1-2.5-2.5v-13.2c0-1.4 1.1-2.5 2.5-2.5h26.3c1.4 0 2.5 1.1 2.5 2.5v41.8h7.9c1.4 0 2.5 1.1 2.5 2.5v13.2z"/></svg>