<svg xmlns="http://www.w3.org/2000/svg" viewBox="-197 324 216 146" enable-background="new -197 324 216 146"><path d="M-17.3 449.5l-62.7-114.9c-3.9-7.2-14.3-7.2-18.2 0l-62.7 114.9c-3.8 6.9 1.2 15.3 9.1 15.3h125.3c8 0 13-8.4 9.2-15.3zm-61.3-8.2c0 1.5-1.2 2.7-2.7 2.7h-15.5c-1.5 0-2.7-1.2-2.7-2.7v-15.5c0-1.5 1.2-2.7 2.7-2.7h15.5c1.5 0 2.7 1.2 2.7 2.7v15.5zm-.1-30.5c-.1.5-.3 1-.9 1.3-.5.4-1.2.5-1.9.5h-15.1c-.8 0-1.4-.2-2-.5-.5-.4-.8-.8-.8-1.3l-1.4-37.2c0-.8.3-1.3.8-1.7.7-.6 1.4-.9 2-.9h18c.6 0 1.3.3 2 .9.5.4.8.9.8 1.5l-1.5 37.4z"/></svg>