<svg xmlns="http://www.w3.org/2000/svg" viewBox="-197 324 216 146" enable-background="new -197 324 216 146"><circle cx="-130.7" cy="438.7" r="15.6"/><path d="M-94.7 402.7c-6.1-6.2-13.2-11.1-21.1-14.8-7.9-3.7-16.2-5.9-24.9-6.6h-.4c-1.4 0-2.6.5-3.5 1.4-1.1 1-1.7 2.3-1.7 3.8v11c0 1.4.4 2.5 1.3 3.5s2 1.5 3.4 1.6c12.4 1.2 23.1 6.2 31.9 15 8.8 8.8 13.8 19.5 15 31.9.1 1.4.7 2.5 1.6 3.4 1 .9 2.1 1.3 3.5 1.3h11c1.6 0 2.9-.6 3.8-1.7 1-1.1 1.5-2.4 1.4-3.9-.7-8.7-2.9-17-6.6-24.9-3.6-7.8-8.5-14.9-14.7-21zM-41.4 408c-5.8-13-13.8-24.6-24-34.7-10.1-10.2-21.7-18.1-34.7-24-13-5.8-26.6-9.1-40.9-9.8h-.2c-1.4 0-2.6.5-3.6 1.5-1.1 1-1.6 2.2-1.6 3.7v11.6c0 1.4.5 2.5 1.4 3.5s2.1 1.5 3.5 1.6c11.7.7 22.8 3.5 33.3 8.3 10.5 4.8 19.6 11.1 27.4 18.9 7.7 7.7 14 16.9 18.9 27.4 4.8 10.5 7.6 21.6 8.2 33.3.1 1.4.6 2.5 1.6 3.5 1 .9 2.2 1.4 3.6 1.4h11.6c1.5 0 2.8-.5 3.7-1.6 1.1-1.1 1.6-2.4 1.5-3.8-.7-14.1-3.9-27.8-9.7-40.8z"/></svg>