<svg xmlns="http://www.w3.org/2000/svg" viewBox="-197 324 216 146" enable-background="new -197 324 216 146"><path d="M-24.8 357.2c-5.1 2.2-10.1 3.5-15.2 4.1 5.7-3.4 9.6-8.3 11.6-14.5-5.2 3.1-10.8 5.2-16.7 6.4-5.2-5.5-11.6-8.3-19.2-8.3-7.3 0-13.5 2.6-18.6 7.7-5.1 5.1-7.7 11.3-7.7 18.6 0 2 .2 4 .7 6-10.8-.5-20.8-3.2-30.3-8.1-9.4-4.9-17.4-11.3-24-19.4-2.4 4.1-3.6 8.5-3.6 13.3 0 4.5 1.1 8.7 3.2 12.5 2.1 3.9 5 7 8.6 9.4-4.2-.2-8.2-1.3-11.9-3.3v.3c0 6.4 2 11.9 6 16.7s9 7.8 15.1 9.1c-2.3.6-4.6.9-6.9.9-1.5 0-3.2-.1-5-.4 1.7 5.3 4.8 9.6 9.3 13 4.5 3.4 9.6 5.1 15.3 5.3-9.6 7.5-20.4 11.2-32.7 11.2-2.3 0-4.5-.1-6.4-.3 12.2 7.9 25.7 11.8 40.4 11.8 9.3 0 18.1-1.5 26.3-4.4 8.2-3 15.2-6.9 21-11.9 5.8-5 10.8-10.7 15-17.1 4.2-6.5 7.3-13.2 9.4-20.2 2.1-7 3.1-14.1 3.1-21.1 0-1.5 0-2.7-.1-3.4 5.3-4 9.7-8.5 13.3-13.9z"/></svg>