<svg xmlns="http://www.w3.org/2000/svg" width="216" height="146" viewBox="0 0 216 146"><path d="M166.254 75.443c-.705-3.205-2.268-5.893-4.684-8.065-2.418-2.172-5.202-3.449-8.353-3.829-9.993-1.086-25.065-1.629-45.218-1.629-20.152 0-35.197.543-45.137 1.629-3.204.38-6.001 1.657-8.392 3.829-2.39 2.173-3.965 4.861-4.726 8.065-1.412 6.302-2.118 15.807-2.118 28.517 0 12.927.706 22.433 2.118 28.517.707 3.203 2.269 5.893 4.686 8.064 2.417 2.173 5.201 3.422 8.351 3.748 9.995 1.141 25.068 1.711 45.219 1.711 20.15 0 35.225-.57 45.217-1.711 3.151-.326 5.92-1.575 8.311-3.748 2.391-2.171 3.966-4.861 4.726-8.064 1.412-6.302 2.119-15.807 2.119-28.517-.001-12.927-.708-22.433-2.119-28.517zm-84.162 8.231h-8.718v46.357h-8.147v-46.357h-8.555v-7.659h25.42v7.659zm21.997 46.357h-7.251v-4.4c-2.933 3.314-5.704 4.97-8.311 4.97-2.498 0-4.074-1.005-4.725-3.014-.434-1.304-.652-3.287-.652-5.948v-31.856h7.251v29.656c0 1.738.027 2.689.082 2.852.163 1.141.733 1.711 1.711 1.711 1.466 0 3.015-1.141 4.644-3.422v-30.797h7.251v40.248zm27.701-12.058c0 3.965-.244 6.682-.731 8.149-.925 2.985-2.852 4.479-5.785 4.479-2.607 0-5.133-1.494-7.578-4.479v3.91h-7.25v-54.016h7.25v17.68c2.337-2.932 4.861-4.399 7.578-4.399 2.933 0 4.86 1.521 5.785 4.562.487 1.412.731 4.101.731 8.066v16.048zm27.538-6.68h-14.583v7.088c0 3.748 1.248 5.621 3.747 5.621 1.792 0 2.879-.977 3.259-2.934.108-.543.163-2.199.163-4.969h7.414v1.059c0 2.662-.055 4.236-.163 4.727-.162 1.465-.731 2.932-1.711 4.398-1.955 2.879-4.89 4.318-8.8 4.318-3.747 0-6.68-1.385-8.799-4.154-1.574-2.01-2.362-5.16-2.362-9.451v-14.096c0-4.291.76-7.441 2.28-9.451 2.119-2.77 5.025-4.154 8.719-4.154 3.64 0 6.52 1.384 8.636 4.154 1.468 2.01 2.2 5.16 2.2 9.451v8.393zM121.361 95.895c-1.25 0-2.471.599-3.666 1.793v24.522c1.195 1.194 2.416 1.792 3.666 1.792 2.117 0 3.178-1.818 3.178-5.459v-17.189c0-3.64-1.06-5.459-3.178-5.459zM148.411 95.895c-2.444 0-3.666 1.847-3.666 5.539v3.748h7.332v-3.748c0-3.694-1.223-5.539-3.666-5.539zM77.368 32.508v22.08h8.147v-22.08l9.857-32.508h-8.31l-5.539 21.428-5.785-21.428h-8.636c1.521 4.563 3.286 9.641 5.296 15.236 2.553 7.495 4.209 13.253 4.97 17.272zM106.289 55.158c3.748 0 6.626-1.385 8.636-4.155 1.521-2.01 2.281-5.215 2.281-9.614v-14.258c0-4.345-.761-7.523-2.281-9.533-2.01-2.77-4.888-4.155-8.636-4.155-3.64 0-6.492 1.385-8.555 4.155-1.52 2.01-2.281 5.188-2.281 9.533v14.258c0 4.345.76 7.55 2.281 9.614 2.064 2.77 4.915 4.155 8.555 4.155zm-3.504-29.494c0-3.748 1.168-5.622 3.504-5.622s3.503 1.874 3.503 5.622v17.109c0 3.803-1.167 5.703-3.503 5.703s-3.504-1.901-3.504-5.703v-17.109zM128.693 55.158c2.717 0 5.515-1.684 8.393-5.052v4.481h7.414v-40.655h-7.414v31.041c-1.63 2.336-3.177 3.503-4.645 3.503-.979 0-1.549-.597-1.711-1.792-.055-.109-.082-1.06-.082-2.852v-29.9h-7.414v32.101c0 2.77.218 4.806.652 6.11.707 2.01 2.309 3.015 4.807 3.015z"/></svg>